<svg width="64" height="64" viewBox="0 0 64 64" fill="none" xmlns="http://www.w3.org/2000/svg">
<rect width="64" height="64" rx="4" fill="#006B5B"/>
<path d="M32.3681 12H15.9376C14.8525 12 14 12.8341 14 13.8957V24.5498C14 28.7204 17.4876 32.1327 21.7503 32.1327H22.6803V20.7204C22.6803 19.6588 23.5328 18.8246 24.6179 18.8246H32.3681C37.7158 18.8246 42.056 22.5024 42.056 27.0521C42.056 31.6019 37.7158 35.2796 32.3681 35.2796H21.7503C17.4876 35.2796 14 38.6919 14 42.8626V50.1043C14 51.1659 14.8525 52 15.9376 52H20.7427C21.8278 52 22.6803 51.1659 22.6803 50.1043V44C22.6803 42.9384 23.5328 42.1043 24.6179 42.1043H32.3681C42.0947 42.1043 50 35.3555 50 27.0521C50 18.7488 42.056 12 32.3681 12Z" fill="#FBFBFB"/>
</svg>
